<svg xmlns="http://www.w3.org/2000/svg" width="637" height="190" viewBox="0 0 637 190">
    <g fill="#FFF" fill-rule="evenodd">
        <path d="M128.921 140.422L132.305 189.929 185.934 189.929 182.314 136.759zM33.435 189.929L89.525 189.929 149.07 44.742 99.438 29.855zM344.492 186.878l52.964.171c0-4.916-.16-9.808-.476-14.559-1.11-17.593-4.012-33.985-8.622-48.73-4.588-14.669-11.122-27.315-19.421-37.588-8.353-10.264-18.696-18.177-30.74-23.517-12.202-5.312-26.447-7.487-42.339-6.456-16.259 1.061-30.304 5.077-41.742 11.938-11.49 6.944-20.777 16.117-27.599 27.263-6.928 11.2-11.926 24.593-14.86 39.814-2.89 15.37-3.77 32.026-2.613 49.5.037.58.08 1.153.124 1.725l52.173.17c-.148-1.728-.283-3.482-.403-5.277-1.738-27.186.634-47.817 7.048-61.323 6.603-13.734 16.64-21.124 29.839-21.97.867-.059 1.73-.088 2.582-.085 11.782.039 21.55 6.12 29.032 18.081 7.956 12.613 12.719 32.203 14.563 59.889.236 3.688.4 7.365.49 10.954zM400.378 190l-58.761-.19-.029-1.437c-.079-3.997-.253-8.123-.517-12.257-1.783-26.805-6.534-46.493-14.118-58.514-7.42-11.862-17.163-17.442-28.934-16.629-12.238.785-21.193 7.427-27.385 20.305-6.194 13.043-8.471 33.185-6.766 59.863.156 2.326.337 4.59.539 6.81l.146 1.608-58.105-.188-.168-2.199c-.06-.755-.118-1.506-.166-2.268-1.173-17.716-.28-34.621 2.658-50.24 3.004-15.581 8.133-29.308 15.247-40.808 7.065-11.545 16.684-21.049 28.584-28.24 11.848-7.106 26.335-11.26 43.064-12.352 16.368-1.06 31.068 1.194 43.708 6.698 12.481 5.532 23.192 13.725 31.842 24.354 8.534 10.568 15.243 23.543 19.942 38.567 4.68 14.968 7.625 31.593 8.751 49.417.35 5.29.51 10.753.477 16.234l-.009 1.466zM601.904 163.731L575.718 165.51 571.726 106.903 518.333 110.567 522.334 169.103 473.875 172.463 538.553 14.897 488.851 0 410.535 189.929 606.128 189.929z"/>
    </g>
</svg>
