<svg xmlns="http://www.w3.org/2000/svg" viewBox="0 0 1038.23 1435.77"><defs><style>.cls-1{fill:#dc1d77;}</style></defs><g id="레이어_2" data-name="레이어 2"><g id="레이어_1-2" data-name="레이어 1"><path class="cls-1" d="M519.12,0C232.42,0,0,232.42,0,519.12,0,742.53,141.14,933,339.12,1006.17V897.75a418.73,418.73,0,1,1,360.25-.13v108.46c197.85-73.26,338.86-263.64,338.86-487C1038.23,232.42,805.82,0,519.12,0Zm-60,934v100.8a525.64,525.64,0,0,0,120.25,0V934a426.92,426.92,0,0,1-120.25,0Z"/><path class="cls-1" d="M519.12,356.07a163,163,0,1,1-115.3,47.75,162,162,0,0,1,115.3-47.75m0-120c-156.33,0-283.06,126.72-283.06,283.05s126.73,283,283.06,283,283-126.73,283-283-126.73-283-283-283Z"/><polygon class="cls-1" points="579.37 1305.16 579.37 1435.77 459.12 1435.77 459.12 688.08 579.12 688.08 579.12 1305.16 579.37 1305.16"/><rect class="cls-1" x="519.12" y="1038.23" width="251.84" height="120"/><rect class="cls-1" x="519.12" y="1231.36" width="251.84" height="120"/></g></g></svg>