<svg xmlns="http://www.w3.org/2000/svg" width="18" height="13" viewBox="0 0 18 13">
    <g fill="#1E1E1E" fill-rule="evenodd">
        <path d="M9 1.357C4.38 1.357.263 6.045.088 6.245c-.117.136-.117.336 0 .473.105.12 1.618 1.834 3.8 3.201L6.24 7.624C6.085 7.274 6 6.887 6 6.482c0-1.616 1.346-2.929 3-2.929.416 0 .812.084 1.171.233L12.104 1.9c-.941-.328-1.976-.542-3.103-.542M9 9.41c-.691 0-1.32-.24-1.83-.625l4.19-4.089c.395.496.64 1.11.64 1.786 0 1.615-1.345 2.928-3 2.928zM2.855 13l2.388-2.332c1.159.552 2.438.938 3.759.938 4.62 0 8.737-4.688 8.912-4.888.107-.126.117-.309.02-.445-.096-.135-1.688-2.323-4.364-3.733L15.64.518 15.11 0 2.36 12.445l.494.555z"/>
    </g>
</svg>